<svg xmlns="http://www.w3.org/2000/svg" xmlns:xlink="http://www.w3.org/1999/xlink" width="500" zoomAndPan="magnify" viewBox="0 0 375 374.999991" height="500" preserveAspectRatio="xMidYMid meet" version="1.0"><defs><clipPath id="id1"><path d="M 59.007812 59.007812 L 316.257812 59.007812 L 316.257812 316.257812 L 59.007812 316.257812 Z M 59.007812 59.007812 " clip-rule="nonzero"/></clipPath><clipPath id="id2"><path d="M 59.007812 91 L 156 91 L 156 285 L 59.007812 285 Z M 59.007812 91 " clip-rule="nonzero"/></clipPath></defs><g clip-path="url(#id1)"><path fill="#f1a229" d="M 316.257812 187.632812 C 316.257812 116.605469 258.664062 59.007812 187.632812 59.007812 L 59.007812 59.007812 L 59.007812 91.164062 L 187.632812 91.164062 C 240.90625 91.164062 284.101562 134.363281 284.101562 187.632812 C 284.101562 240.90625 240.90625 284.101562 187.632812 284.101562 L 59.007812 284.101562 L 59.007812 316.257812 L 187.632812 316.257812 C 258.664062 316.257812 316.257812 258.664062 316.257812 187.632812 Z M 187.632812 251.945312 L 123.320312 251.945312 L 123.320312 219.789062 L 187.632812 219.789062 C 205.390625 219.789062 219.789062 205.390625 219.789062 187.632812 C 219.789062 169.875 205.390625 155.476562 187.632812 155.476562 L 123.320312 155.476562 L 123.320312 123.320312 L 187.632812 123.320312 C 223.148438 123.320312 251.945312 152.121094 251.945312 187.632812 C 251.945312 223.148438 223.148438 251.945312 187.632812 251.945312 " fill-opacity="1" fill-rule="nonzero"/></g><g clip-path="url(#id2)"><path fill="#ff914d" d="M 59.007812 187.632812 L 59.007812 284.101562 L 91.164062 284.101562 L 91.164062 219.789062 Z M 59.007812 91.164062 L 59.007812 155.476562 L 91.164062 187.632812 L 91.164062 91.164062 Z M 155.476562 219.789062 L 123.320312 187.632812 L 123.320312 219.789062 Z M 123.320312 155.476562 L 155.476562 155.476562 L 155.476562 187.632812 L 123.320312 155.476562 " fill-opacity="1" fill-rule="nonzero"/></g></svg>